REM DIRINDEX 1\2\4,1\2\5,1\2\6,1\3\7,1\3\8,1\3\9,1\3\10
REM DIRNAME folder01,folder02,folder03,folder04,folder05,folder06,folder07,folder08,folder09,folder10
TITLE ""
FILE "b_043.mp3" MP3
  TRACK 01 AUDIO
    TITLE "0:"
    INDEX 01 00:00:00
  TRACK 02 AUDIO
    TITLE "7:cjc057_05465"
    INDEX 01 00:00:11
  TRACK 03 AUDIO
    TITLE "0:"
    INDEX 01 00:01:13
  TRACK 04 AUDIO
    TITLE "8:cjc057_05466"
    INDEX 01 00:01:44
  TRACK 05 AUDIO
    TITLE "0:"
    INDEX 01 00:03:04
  TRACK 06 AUDIO
    TITLE "9:cjc057_05467"
    INDEX 01 00:03:49
  TRACK 07 AUDIO
    TITLE "0:"
    INDEX 01 00:06:53
  TRACK 08 AUDIO
    TITLE "7:cjc057_05468"
    INDEX 01 00:07:60
  TRACK 09 AUDIO
    TITLE "0:"
    INDEX 01 00:09:04
  TRACK 10 AUDIO
    TITLE "8:cjc057_05469"
    INDEX 01 00:09:38
  TRACK 11 AUDIO
    TITLE "0:"
    INDEX 01 00:10:70
  TRACK 12 AUDIO
    TITLE "9:cjc057_05470"
    INDEX 01 00:11:40
  TRACK 13 AUDIO
    TITLE "0:"
    INDEX 01 00:15:62
  TRACK 14 AUDIO
    TITLE "7:cjc057_05471"
    INDEX 01 00:16:71
  TRACK 15 AUDIO
    TITLE "0:"
    INDEX 01 00:18:11
  TRACK 16 AUDIO
    TITLE "8:cjc057_05472"
    INDEX 01 00:18:44
  TRACK 17 AUDIO
    TITLE "0:"
    INDEX 01 00:21:04
  TRACK 18 AUDIO
    TITLE "9:cjc057_05473"
    INDEX 01 00:21:49
  TRACK 19 AUDIO
    TITLE "0:"
    INDEX 01 00:24:72
  TRACK 20 AUDIO
    TITLE "7:cjc057_05474"
    INDEX 01 00:26:05
  TRACK 21 AUDIO
    TITLE "0:"
    INDEX 01 00:27:34
  TRACK 22 AUDIO
    TITLE "8:cjc057_05475"
    INDEX 01 00:27:69
  TRACK 23 AUDIO
    TITLE "0:"
    INDEX 01 00:30:46
  TRACK 24 AUDIO
    TITLE "9:cjc057_05476"
    INDEX 01 00:31:18
  TRACK 25 AUDIO
    TITLE "0:"
    INDEX 01 00:34:20
  TRACK 26 AUDIO
    TITLE "7:cjc057_05477"
    INDEX 01 00:35:29
  TRACK 27 AUDIO
    TITLE "0:"
    INDEX 01 00:36:52
  TRACK 28 AUDIO
    TITLE "8:cjc057_05478"
    INDEX 01 00:37:10
  TRACK 29 AUDIO
    TITLE "0:"
    INDEX 01 00:39:29
  TRACK 30 AUDIO
    TITLE "9:cjc057_05479"
    INDEX 01 00:39:74
  TRACK 31 AUDIO
    TITLE "0:"
    INDEX 01 00:43:13
  TRACK 32 AUDIO
    TITLE "7:cjc057_05480"
    INDEX 01 00:44:22
  TRACK 33 AUDIO
    TITLE "0:"
    INDEX 01 00:45:43
  TRACK 34 AUDIO
    TITLE "8:cjc057_05481"
    INDEX 01 00:46:04
  TRACK 35 AUDIO
    TITLE "0:"
    INDEX 01 00:47:13
  TRACK 36 AUDIO
    TITLE "9:cjc057_05482"
    INDEX 01 00:47:58
  TRACK 37 AUDIO
    TITLE "0:"
    INDEX 01 00:51:28
  TRACK 38 AUDIO
    TITLE "7:cjc057_05483"
    INDEX 01 00:52:36
  TRACK 39 AUDIO
    TITLE "0:"
    INDEX 01 00:53:37
  TRACK 40 AUDIO
    TITLE "8:cjc057_05484"
    INDEX 01 00:53:70
  TRACK 41 AUDIO
    TITLE "0:"
    INDEX 01 00:55:34
  TRACK 42 AUDIO
    TITLE "9:cjc057_05485"
    INDEX 01 00:56:00
  TRACK 43 AUDIO
    TITLE "0:"
    INDEX 01 00:58:69
  TRACK 44 AUDIO
    TITLE "7:cjc057_05486"
    INDEX 01 01:00:04
  TRACK 45 AUDIO
    TITLE "0:"
    INDEX 01 01:01:17
  TRACK 46 AUDIO
    TITLE "8:cjc057_05487"
    INDEX 01 01:01:48
  TRACK 47 AUDIO
    TITLE "0:"
    INDEX 01 01:03:04
  TRACK 48 AUDIO
    TITLE "9:cjc057_05488"
    INDEX 01 01:03:51
  TRACK 49 AUDIO
    TITLE "0:"
    INDEX 01 01:07:55
  TRACK 50 AUDIO
    TITLE "7:cjc057_05489"
    INDEX 01 01:08:64
  TRACK 51 AUDIO
    TITLE "0:"
    INDEX 01 01:10:02
  TRACK 52 AUDIO
    TITLE "8:cjc057_05490"
    INDEX 01 01:10:35
  TRACK 53 AUDIO
    TITLE "0:"
    INDEX 01 01:11:41
  TRACK 54 AUDIO
    TITLE "9:cjc057_05491"
    INDEX 01 01:12:09
  TRACK 55 AUDIO
    TITLE "0:"
    INDEX 01 01:15:39
  TRACK 56 AUDIO
    TITLE "7:cjc057_05492"
    INDEX 01 01:16:48
  TRACK 57 AUDIO
    TITLE "0:"
    INDEX 01 01:17:55
  TRACK 58 AUDIO
    TITLE "8:cjc057_05493"
    INDEX 01 01:18:15
  TRACK 59 AUDIO
    TITLE "0:"
    INDEX 01 01:19:56
  TRACK 60 AUDIO
    TITLE "9:cjc057_05494"
    INDEX 01 01:20:28
  TRACK 61 AUDIO
    TITLE "0:"
    INDEX 01 01:23:46
  TRACK 62 AUDIO
    TITLE "7:cjc057_05495"
    INDEX 01 01:24:55
  TRACK 63 AUDIO
    TITLE "0:"
    INDEX 01 01:26:01
  TRACK 64 AUDIO
    TITLE "8:cjc057_05496"
    INDEX 01 01:26:32
  TRACK 65 AUDIO
    TITLE "0:"
    INDEX 01 01:28:22
  TRACK 66 AUDIO
    TITLE "9:cjc057_05497"
    INDEX 01 01:28:69
  TRACK 67 AUDIO
    TITLE "0:"
    INDEX 01 01:32:37
  TRACK 68 AUDIO
    TITLE "7:cjc057_05498"
    INDEX 01 01:33:44
  TRACK 69 AUDIO
    TITLE "0:"
    INDEX 01 01:34:40
  TRACK 70 AUDIO
    TITLE "8:cjc057_05499"
    INDEX 01 01:34:73
  TRACK 71 AUDIO
    TITLE "0:"
    INDEX 01 01:36:68
  TRACK 72 AUDIO
    TITLE "9:cjc057_05500"
    INDEX 01 01:37:38
  TRACK 73 AUDIO
    TITLE "0:"
    INDEX 01 01:40:62
  TRACK 74 AUDIO
    TITLE "7:cjc057_05501"
    INDEX 01 01:41:71
  TRACK 75 AUDIO
    TITLE "0:"
    INDEX 01 01:43:09
  TRACK 76 AUDIO
    TITLE "8:cjc057_05502"
    INDEX 01 01:43:43
  TRACK 77 AUDIO
    TITLE "0:"
    INDEX 01 01:44:68
  TRACK 78 AUDIO
    TITLE "9:cjc057_05503"
    INDEX 01 01:45:40
  TRACK 79 AUDIO
    TITLE "0:"
    INDEX 01 01:48:28
  TRACK 80 AUDIO
    TITLE "7:cjc057_05504"
    INDEX 01 01:49:35
  TRACK 81 AUDIO
    TITLE "0:"
    INDEX 01 01:50:43
  TRACK 82 AUDIO
    TITLE "8:cjc057_05505"
    INDEX 01 01:50:74
  TRACK 83 AUDIO
    TITLE "0:"
    INDEX 01 01:53:14
  TRACK 84 AUDIO
    TITLE "9:cjc057_05506"
    INDEX 01 01:53:59
  TRACK 85 AUDIO
    TITLE "0:"
    INDEX 01 01:56:67
